<?xml version="1.0" encoding="utf-8"?>
<!-- Generator: Adobe Illustrator 22.1.0, SVG Export Plug-In . SVG Version: 6.00 Build 0)  -->
<svg version="1.1" id="Calque_1" xmlns="http://www.w3.org/2000/svg" xmlns:xlink="http://www.w3.org/1999/xlink" x="0px" y="0px"
	 viewBox="0 0 142 164" style="enable-background:new 0 0 142 164;" xml:space="preserve">
<style type="text/css">
	.st0{fill:none;stroke:#76777E;}
	.st1{fill:url(#SVGID_1_);}
	.st2{fill:url(#SVGID_2_);}
	.st3{fill:url(#SVGID_3_);}
	.st4{fill:url(#SVGID_4_);}
	.st5{fill:url(#SVGID_5_);}
	.st6{fill:url(#SVGID_6_);}
	.st7{fill:url(#SVGID_7_);}
	.st8{fill:url(#SVGID_8_);}
	.st9{fill:url(#SVGID_9_);}
	.st10{fill:url(#SVGID_10_);}
	.st11{fill:url(#SVGID_11_);}
	.st12{fill:url(#SVGID_12_);}
	.st13{fill:url(#SVGID_13_);}
	.st14{fill:url(#SVGID_14_);}
	.st15{fill:url(#SVGID_15_);}
	.st16{fill:url(#SVGID_16_);}
	.st17{fill:url(#SVGID_17_);}
	.st18{fill:url(#SVGID_18_);}
	.st19{fill:url(#SVGID_19_);}
	.st20{fill:url(#SVGID_20_);}
	.st21{fill:url(#SVGID_21_);}
	.st22{fill:url(#SVGID_22_);}
</style>
<path class="st0" d="M110.7,40.6c4.8,3.5,7,16.2,7.2,19s0.2,5.2,2.3,8.8c2.2,3.7-1.2,7-1.8,9.3c-0.7,2.3,1.8,8.8,1.8,16.2
	c0,7.3-5,21.3-6.7,24.7c-1.7,3.3-3.7,16.2-4.8,20.7s-7.3,5.2-11.8,5.9c-4.5,0.8-8-0.5-9.8-1.5s-6.2-5.8-17.2-11.6
	c-11-5.9-15-14.4-16.2-16.9l-3.2-12.5c0,0-2.2,2-4.8,2s-8.8-7.8-10.2-9.3s-1.5-8-1.8-10.8s-0.5-6,2.5-8.5l7.5,4 M50.6,103.9
	c0,0,2.4,15.3,0,18.8l-4.7,4.5 M98.7,145.4c0,0-10,25.6-16.2,30.8l-17.5-4c0,0-21-17-24.8-32l5.7-13c0,0-2.7-1.5-6.6,1.2
	s-3.6,3.3-5.8,5s-10.2,6.6-17.1,8C-3.3,145.4-8,156.3-9,164 M110.3,131.3c0,0,14.9,8.6,23.8,11.9"/>
<linearGradient id="SVGID_1_" gradientUnits="userSpaceOnUse" x1="47.7077" y1="55.1673" x2="51.9957" y2="56.8343" gradientTransform="matrix(1 0 0 -1 0 166)">
	<stop  offset="0" style="stop-color:#4663FF"/>
	<stop  offset="1" style="stop-color:#17A8D3"/>
</linearGradient>
<path class="st1" d="M46,105.1c0,0,0.9,1.1,0.9,2.9s1.9,6.6,3,7.1s0.3,1.2,1.3,0.9c0,0,0-9.7-0.9-12.7C50.3,103.4,47,105.4,46,105.1
	z"/>
<linearGradient id="SVGID_2_" gradientUnits="userSpaceOnUse" x1="64.5085" y1="161.5449" x2="64.7655" y2="161.6449" gradientTransform="matrix(1 0 0 -1 0 166)">
	<stop  offset="0" style="stop-color:#4663FF"/>
	<stop  offset="1" style="stop-color:#17A8D3"/>
</linearGradient>
<path class="st2" d="M64.8,4.4h-0.3H64.8z"/>
<linearGradient id="SVGID_3_" gradientUnits="userSpaceOnUse" x1="65.9166" y1="158.2007" x2="66.5586" y2="158.4507" gradientTransform="matrix(1 0 0 -1 0 166)">
	<stop  offset="0" style="stop-color:#4663FF"/>
	<stop  offset="1" style="stop-color:#17A8D3"/>
</linearGradient>
<path class="st3" d="M66.8,7.8c-0.3-0.2-0.7-0.3-1-0.3C65.8,7.5,66.2,7.6,66.8,7.8z"/>
<linearGradient id="SVGID_4_" gradientUnits="userSpaceOnUse" x1="62.9671" y1="160.568" x2="64.8041" y2="161.282" gradientTransform="matrix(1 0 0 -1 0 166)">
	<stop  offset="0" style="stop-color:#4663FF"/>
	<stop  offset="1" style="stop-color:#17A8D3"/>
</linearGradient>
<path class="st4" d="M65.3,5.3c-1-0.3-1.9-0.5-2.7-0.5C62.6,4.8,63.8,5,65.3,5.3z"/>
<linearGradient id="SVGID_5_" gradientUnits="userSpaceOnUse" x1="74.2754" y1="160.286" x2="74.9504" y2="160.549" gradientTransform="matrix(1 0 0 -1 0 166)">
	<stop  offset="0" style="stop-color:#4663FF"/>
	<stop  offset="1" style="stop-color:#17A8D3"/>
</linearGradient>
<path class="st5" d="M75.2,5.7c-0.4-0.2-0.7-0.3-1-0.3C74.1,5.4,74.5,5.6,75.2,5.7z"/>
<linearGradient id="SVGID_6_" gradientUnits="userSpaceOnUse" x1="64.0123" y1="161.4588" x2="64.4123" y2="161.6138" gradientTransform="matrix(1 0 0 -1 0 166)">
	<stop  offset="0" style="stop-color:#4663FF"/>
	<stop  offset="1" style="stop-color:#17A8D3"/>
</linearGradient>
<path class="st6" d="M64.5,4.4c-0.3,0-0.5,0.1-0.5,0.1C64.1,4.5,64.3,4.4,64.5,4.4z"/>
<linearGradient id="SVGID_7_" gradientUnits="userSpaceOnUse" x1="45.281" y1="159.505" x2="45.582" y2="159.622" gradientTransform="matrix(1 0 0 -1 0 166)">
	<stop  offset="0" style="stop-color:#4663FF"/>
	<stop  offset="1" style="stop-color:#17A8D3"/>
</linearGradient>
<path class="st7" d="M45.6,6.4c-0.2,0.1-0.4,0.1-0.4,0.1C45.4,6.4,45.5,6.4,45.6,6.4z"/>
<linearGradient id="SVGID_8_" gradientUnits="userSpaceOnUse" x1="38.3425" y1="86.7262" x2="38.3715" y2="86.7382" gradientTransform="matrix(1 0 0 -1 0 166)">
	<stop  offset="0" style="stop-color:#4663FF"/>
	<stop  offset="1" style="stop-color:#17A8D3"/>
</linearGradient>
<path class="st8" d="M38.3,79c0,0.2,0.1,0.4,0.2,0.5C38.4,79.4,38.4,79.3,38.3,79z"/>
<linearGradient id="SVGID_9_" gradientUnits="userSpaceOnUse" x1="27.1177" y1="93.7323" x2="27.9117" y2="94.0403" gradientTransform="matrix(1 0 0 -1 0 166)">
	<stop  offset="0" style="stop-color:#4663FF"/>
	<stop  offset="1" style="stop-color:#17A8D3"/>
</linearGradient>
<path class="st9" d="M27.5,73.3c0,0,0-1,0.1-2.4C27.5,71.6,27.4,72.4,27.5,73.3z"/>
<linearGradient id="SVGID_10_" gradientUnits="userSpaceOnUse" x1="124.7441" y1="111.4582" x2="124.8631" y2="111.5052" gradientTransform="matrix(1 0 0 -1 0 166)">
	<stop  offset="0" style="stop-color:#4663FF"/>
	<stop  offset="1" style="stop-color:#17A8D3"/>
</linearGradient>
<path class="st10" d="M124.8,54.2l0.1,0.6L124.8,54.2z"/>
<linearGradient id="SVGID_11_" gradientUnits="userSpaceOnUse" x1="87.4867" y1="157.6758" x2="87.6277" y2="157.7298" gradientTransform="matrix(1 0 0 -1 0 166)">
	<stop  offset="0" style="stop-color:#4663FF"/>
	<stop  offset="1" style="stop-color:#17A8D3"/>
</linearGradient>
<path class="st11" d="M87.4,8.2c0,0,0.1,0.1,0.3,0.2L87.4,8.2z"/>
<linearGradient id="SVGID_12_" gradientUnits="userSpaceOnUse" x1="45.7" y1="159.7" x2="45.7" y2="159.7" gradientTransform="matrix(1 0 0 -1 0 166)">
	<stop  offset="0" style="stop-color:#4663FF"/>
	<stop  offset="1" style="stop-color:#17A8D3"/>
</linearGradient>
<path class="st12" d="M45.7,6.3"/>
<linearGradient id="SVGID_13_" gradientUnits="userSpaceOnUse" x1="111.2774" y1="161.0216" x2="111.4104" y2="161.0736" gradientTransform="matrix(1 0 0 -1 0 166)">
	<stop  offset="0" style="stop-color:#4663FF"/>
	<stop  offset="1" style="stop-color:#17A8D3"/>
</linearGradient>
<path class="st13" d="M111.3,5.1l0.1-0.3L111.3,5.1z"/>
<linearGradient id="SVGID_14_" gradientUnits="userSpaceOnUse" x1="24.5703" y1="107.8718" x2="114.6203" y2="142.8828" gradientTransform="matrix(1 0 0 -1 0 166)">
	<stop  offset="0" style="stop-color:#4663FF"/>
	<stop  offset="1" style="stop-color:#17A8D3"/>
</linearGradient>
<path class="st14" d="M124.3,46.9c-1.2-0.1-3.4-3.7-3.4-3.7c6.2-3.2,9.6-9.3,9.6-9.3c-4,6.4-8.2,6.5-9.3,6.6c-1,0.1-6.6-2.5-2.8-2.5
	c3.8,0,5.6-1.4,5.6-1.4c-1.3,0.9-3.8,0.1-3.8,0.1c1.3-0.4,3.5-2.2,3.5-2.2c-1.2,1-3.2,1.1-3.2,1.1c0.7-0.5,1.5-3.8,1.5-3.8
	c-0.6,1.9-2.7,2.5-2.7,2.5c1-0.5,4.3-6,4.3-6c-1,1.3-3.3,2-3.3,2c3.5-3.1,5.5-7.5,6.3-9.6c-2.2,5.7-7.9,10-7.9,10s-1.4-0.1-0.9-0.8
	l1.9-4.2c-0.6,1.6-3.3,2.6-3.3,2.6c0.3-2-0.2-9-0.2-9c0.5-0.1,3.7,0.7,3.7,0.7c-0.8-0.5-3.9-1.4-3.9-1.4c0-1.5-1.8-5.3-1.8-5.3
	c0.7,1.5,0.6,2.8,0.5,3.5s0.5,1.9,0.3,1.8s-2.2,0.1-2.2,0.1c-0.3-5-1.6-6.7-1.6-6.7c1.4,2.8,1.2,6.9,1.2,6.9l-0.8,0.2v-2.2
	c-0.2-2.2-1.1-4.7-1.3-5.1c0.2,0.5,0.1,3.9,0.1,3.5c0-0.5-0.7-2.2-0.7-2.2l1.6-8c-0.5,1.9-3.2,10-3.6,8.6c-0.3-1.1-1.1-1.9-1.5-2.3
	c0.5,0.6,1.1,1.9,1.3,2.6c0.2,0.9-0.9,1.4-0.9,1.4c-2.5-4.7-4.7-6.9-5.6-7.7c1.8,1.7,3.7,6.5,3.7,6.5c-0.4-0.7-2.2-2.2-3.7-3.5
	c1.2,1.4,2.1,3.1,2.1,3.1c-0.2-0.2-1.3-0.1-1.3-0.1c2,0.2,1.9,2.8,1.7,2.4s-1.1-1.2-2.8-1.9c-1.7-0.7-5.5-2.4-5.5-2.4
	c1-1.5,3.6,0.2,3.6,0.2c-2.4-1.9-4.2,0-4.9-0.6l-4.8-1.7c-0.2-0.3-1.1-1.1-1.6-1.5C88.2,9,88.6,10,88.6,10s0.1,0.5-1.1-0.2
	C86.4,9.2,84,8.6,84,8.6c1.5,0.7,0.6,0.9,0.6,0.9c-1.9-1.5-7.2-3.1-9.4-3.8c0.9,0.4,1.9,1.1,1.9,1.1c-0.6-0.2-3.5-0.7-3.5-0.7
	c-3.6-1.9-7.2-1.9-8.8-1.7c3.7-0.2,8.9,2.1,7.9,2.1c-0.7,0-4.6-0.7-7.4-1.2c2.1,0.6,4.3,1.4,4.3,1.4c-1-0.1-3.6,0.6-3.6,0.6
	c1.7-0.4,4.2,0.3,4.6,0.8s-0.1,2.1-0.1,2.1c-1-1.1-2.6-1.9-3.7-2.3c1.8,0.8,3.7,2.8,3.7,2.9c-0.1,0.1-1.7-0.2-1.7-0.2
	c-9.2-5.1-17.2-5.2-17.2-5.2c-2.4-4.1-4.7-4.2-4.7-4.2c3.2,0.6,3.8,4.2,3.8,4.2c-1.9-0.1-4,0.6-4.9,0.9c2-0.7,4.7-0.8,5.1-0.6
	c0.4,0.2,0.7,2.6,0.7,2.6c-0.1,0.6,0,3.7,0,3.7c-4.5-2.9-8,0.5-8,0.5c5-3.9,8.3,0.8,8.3,0.8c-5.1-0.2-9.6,6.5-9.6,6.5
	c5.6-7.1,8.3-5.7,8.3-5.7c-2,1.2-3.6,4.8-3.6,4.8c-0.5,0.1-2.9,2.8-2.9,2.8c0.7-0.8,2.3-1.1,2.3-1.1l-1.8,2.2c-1,0.3-4.4,3.7-5,4.5
	c-0.7,0.8-4.4,4.6-4.4,4.6c1.9-1.6,4.9-3.9,4.9-3.9s-1.6,2.5-5.1,4.3s-4.8,5.2-4.8,5.2c-3.3,2.3-2.2,6.9-3.6,6.8l-5.2,1.2
	c2.8-0.8,5.3-0.4,5.3-0.4l-0.2,4.7c-2.9,0.8-5.6-0.9-5.6-0.9c1.1,1.7,6.2,2.5,6.2,2.5c-1.4,0.9-2.6,5.1-2.6,5.1c0.5-1.8,3-1.6,3-1.6
	C27,57.7,29,64.7,29,64.7c-0.8,1.8-1.1,4.4-1.3,6.3c0.4-2.2,1.6-3.8,1.6-3.8l1.3,4.3c0.4,2-2.3,3.8-2.3,3.8l2.2-0.6
	c-0.2,0.4-1.7,7.7-1,7.3s3.8-0.9,3.5,0v7.6c-0.1-1.2,0.5-6.5,0.5-6.5c-0.1-7.7,4.4-7.5,4.4-7.5C37.6,77,38,78.3,38.3,79
	c-0.2-1,0.2-3.3,0.2-3.3c0.5,0.1,2.4,1.4,2.4,1.4c0.3,1.9,2.5,5.7,2.5,5.7s-0.6-10.2,0.6-5.1l6.6,18.5c0,0,1.8-0.4,1.5-3.2
	s-0.5-11,0.6-14.4s1-12.9,1.6-13.1l2.1,2c0,0-1.6-2.8-0.5-1.9l2.9,3.4c0,0-4.2-7.1-5-16.4l13.4-18.5c0.8,10-10.6,15-10.6,15
	C63,47.4,68,39.9,68,39.9c-0.1,2.1-3.6,9.2-5.8,11.6l-6.8,0.8c12.1,5.5,16.4-16.4,17.9-18.4h8c-2.6,1.1-8,6.6-8,6.6
	c1.5-1.6,9.8-6.6,9.8-6.6c-1.5,1-3.4,6.6-3.4,6.6c0.7-1.2,4.4-4.4,6.5-4.7s6.1-0.8,4.8,1.4l-15.6,5.5c4.4,0.5,13.8-2.1,13.8-2.1
	c-7,2.3-14.4,14.1-14.4,14.1c4.8-7.7,22.2-17.3,24-17.5c1.8-0.2,11.6,3.1,11.6,3.1s2.8,1.9,4.7,6.6c1.9,4.8,2.9,12.3,2.9,12.3
	c0.2,1.4-0.1,3.6,0.9,6.1c1,2.5,1.8,3.7,1.8,3.7c1-2.3-0.4-8.7-0.4-8.7c1,0.4,2.7,5.5,2.7,5.5c0.5-2-0.7-6.7-0.7-6.7
	c0.6,0.5,1.5,3.5,1.5,3.5c0-1.2-1.7-5.9-1.9-6c1,0.1,3.8,3.8,3.8,3.8c-0.5-2.2-4.8-7.9-4.8-7.9c1,0.2,5,5.2,5,5.2
	c-0.9-2.2-4.6-6-4.6-6c0.7,0.2,2,1.5,2,1.5c-0.1-0.6-0.4-1.7-0.4-1.7c1.6,1,2.1,2.1,2.2,2.7c-0.4-1.8-2.1-3.1-2.1-3.1
	c1.3,0.2,1.4,0.9,1.4,0.9c-0.2-0.7-0.3-1.1-0.3-1.1c1.2,0.5,2.2,3.2,2.2,3.2c-0.2-1.8-2.1-4-2.1-4c1.1,0,1.2,0.1,1.2,0.1
	c-0.4-0.8-0.8-1.4-0.8-1.4c3.4-1.5,4.5-4.7,4.5-4.7C127.7,46.5,125.5,47.1,124.3,46.9L124.3,46.9z M60.6,10.9c0,0-5.5-3.8-6.6-4
	c0,0,3.7,1.6,4,4.7c0,0-2.9-0.9-4,0l-2.1-5.5c0,0,8.1,1.1,9.9,4.8C61.6,10.5,60.6,10.9,60.6,10.9z"/>
<linearGradient id="SVGID_15_" gradientUnits="userSpaceOnUse" x1="126.3486" y1="145.813" x2="126.9436" y2="146.045" gradientTransform="matrix(1 0 0 -1 0 166)">
	<stop  offset="0" style="stop-color:#4663FF"/>
	<stop  offset="1" style="stop-color:#17A8D3"/>
</linearGradient>
<path class="st15" d="M126.5,20.6c0.3-0.7,0.4-1.1,0.4-1.1C126.7,19.9,126.6,20.2,126.5,20.6z"/>
<linearGradient id="SVGID_16_" gradientUnits="userSpaceOnUse" x1="126.4379" y1="145.3202" x2="126.4939" y2="145.3422" gradientTransform="matrix(1 0 0 -1 0 166)">
	<stop  offset="0" style="stop-color:#4663FF"/>
	<stop  offset="1" style="stop-color:#17A8D3"/>
</linearGradient>
<path class="st16" d="M126.4,20.7C126.5,20.7,126.5,20.6,126.4,20.7C126.5,20.6,126.5,20.7,126.4,20.7z"/>
<linearGradient id="SVGID_17_" gradientUnits="userSpaceOnUse" x1="99.1507" y1="155.8977" x2="100.4116" y2="156.3877" gradientTransform="matrix(1 0 0 -1 0 166)">
	<stop  offset="0" style="stop-color:#4663FF"/>
	<stop  offset="1" style="stop-color:#17A8D3"/>
</linearGradient>
<path class="st17" d="M98.6,8.9c0,0,1.1,0.9,2.4,1.9C100.3,10,99.5,9.3,98.6,8.9z"/>
<linearGradient id="SVGID_18_" gradientUnits="userSpaceOnUse" x1="110.3" y1="154.2" x2="110.3" y2="154.2" gradientTransform="matrix(1 0 0 -1 0 166)">
	<stop  offset="0" style="stop-color:#4663FF"/>
	<stop  offset="1" style="stop-color:#17A8D3"/>
</linearGradient>
<path class="st18" d="M110.3,11.8"/>
<linearGradient id="SVGID_19_" gradientUnits="userSpaceOnUse" x1="100.9392" y1="158.3261" x2="101.0232" y2="158.3591" gradientTransform="matrix(1 0 0 -1 0 166)">
	<stop  offset="0" style="stop-color:#4663FF"/>
	<stop  offset="1" style="stop-color:#17A8D3"/>
</linearGradient>
<path class="st19" d="M100.9,7.6c0,0,0.1,0.1,0.2,0.1C101,7.7,101,7.7,100.9,7.6z"/>
<linearGradient id="SVGID_20_" gradientUnits="userSpaceOnUse" x1="100.7194" y1="158.4688" x2="100.8434" y2="158.5168" gradientTransform="matrix(1 0 0 -1 0 166)">
	<stop  offset="0" style="stop-color:#4663FF"/>
	<stop  offset="1" style="stop-color:#17A8D3"/>
</linearGradient>
<path class="st20" d="M100.9,7.6c-0.2-0.1-0.2-0.2-0.2-0.2C100.8,7.5,100.8,7.6,100.9,7.6z"/>
<linearGradient id="SVGID_21_" gradientUnits="userSpaceOnUse" x1="106.3" y1="154.6" x2="106.3" y2="154.6" gradientTransform="matrix(1 0 0 -1 0 166)">
	<stop  offset="0" style="stop-color:#4663FF"/>
	<stop  offset="1" style="stop-color:#17A8D3"/>
</linearGradient>
<path class="st21" d="M106.3,11.4"/>
<linearGradient id="SVGID_22_" gradientUnits="userSpaceOnUse" x1="106.1" y1="154.6611" x2="106.213" y2="154.7051" gradientTransform="matrix(1 0 0 -1 0 166)">
	<stop  offset="0" style="stop-color:#4663FF"/>
	<stop  offset="1" style="stop-color:#17A8D3"/>
</linearGradient>
<path class="st22" d="M106.3,11.4l-0.2-0.2C106.1,11.3,106.2,11.4,106.3,11.4z"/>
</svg>
