<?xml version="1.0" encoding="utf-8"?>
<!-- Generator: Adobe Illustrator 23.0.6, SVG Export Plug-In . SVG Version: 6.00 Build 0)  -->
<svg version="1.1" id="Calque_1" xmlns="http://www.w3.org/2000/svg" xmlns:xlink="http://www.w3.org/1999/xlink" x="0px" y="0px"
	 viewBox="0 0 144 182" style="enable-background:new 0 0 144 182;" xml:space="preserve">
<style type="text/css">
	.st0{fill:none;stroke:#76777E;stroke-miterlimit:10;}
	.st1{fill:url(#SVGID_1_);}
	.st2{fill:url(#SVGID_2_);}
	.st3{fill:url(#SVGID_3_);}
	.st4{fill:url(#SVGID_4_);}
	.st5{fill:url(#SVGID_5_);}
</style>
<path class="st0" d="M86.8,66.1c0,0,9-2.9,15.7-4.4c6.8-1.5,10.9,0.7,13.6,1.9c1.8,0.7,1.8,1.3,2.8,1.2s1-0.7,1.9-1.8
	c5-5.8,17.3-4.4,18.8-3.1c0.5,0.5,0.1,1.7,0.1,1.7s-0.6,0.3-0.9,0.8c0,0,0.9,17.2-12.8,16.7l-6-12.5c0,0-2-0.8-2.4,1.9
	c-0.3,1.7-0.9,10.7-7.7,14.2S95.2,83.2,94,78s-1.2-6.2-3.2-8.5c-2-2.2-4.8-1.1-4.8-1.1L86.8,66.1z"/>
<path class="st0" d="M87,120.5c12.1,4.5,28.4,3.6,31.7,1c3.3-2.7,2.5-5.6,2.2-7.6s0.3-3.6,0.3-3.6s1.9-2.8,2.9-7.4s2.5-9.7,2.5-9.7
	c1.6-0.8,3.6-3.2,3.9-4.5s-0.7-3.1-0.7-3.1l-1.8-3.1l1.6-3.7"/>
<path class="st0" d="M117,25c0,0,5.3,5.8,7.1,10.5c1.8,4.7,1.8,8,2.3,10s2.1,5.5,2.4,5.7c0.3,0.3,1.1,2.8,0.8,4.9
	c0,0-0.3,1.1-0.7,2.7"/>
<path class="st0" d="M84,146c0.4-0.9,5.1-5.2,5.1-5.2c2.2-1.2,7-8.8,9.2-12.8s6.4-4.5,6.4-4.5"/>
<path class="st0" d="M103.6,123.9c0,0,4.2,9.3,8.2,19.6s3.1,15.7,2.4,20.1c-0.7,4.3-1.3,6.5-1.3,6.5H98.3l-2.5-2.7
	c-0.1-2.2-1-5.3-3.3-11.7c-2.2-6.4-1-7,0-10.8c1-3.9,2.5-11.2,2.5-11.2"/>
<path class="st0" d="M70,130.4c0,0,14.4,22,15.7,23.3C87,155,96,168.1,99.2,170.8c3.3,2.7,7.8,2.7,9.4,6.4c0,0-1.7,1.3-3.9,2.9"/>
<path class="st0" d="M122,64c0.8-2,10.3-6.1,15.5-3.4c1.4,17-9.3,17.2-10.2,16.5c-1.2-0.9-2.3-1.4-3.9-3.5l-1.4-2.8
	C121,68.5,121.3,65.7,122,64z"/>
<path class="st0" d="M95,68.5c1-7.4,18.8-6.3,20.6-3c1.9,3.5-1.6,17.5-10.5,17.6C96.3,83.2,94,76.5,95,68.5z"/>
<path class="st0" d="M11.7,138.3c0,0-8.6,14-11.7,16.9"/>
<path class="st0" d="M113.9,123.4c0,0,13.3,8.9,15.9,32.4"/>
<g>
	
		<linearGradient id="SVGID_1_" gradientUnits="userSpaceOnUse" x1="30.0051" y1="40.8" x2="30.3812" y2="40.8" gradientTransform="matrix(1 0 0 -1 0 184)">
		<stop  offset="0" style="stop-color:#EF3F7C"/>
		<stop  offset="0.9768" style="stop-color:#FF029A"/>
		<stop  offset="1" style="stop-color:#FF009B"/>
	</linearGradient>
	<path class="st1" d="M30,142.5l0.4,1.4C30.3,143.5,30.2,143,30,142.5z"/>
	
		<linearGradient id="SVGID_2_" gradientUnits="userSpaceOnUse" x1="42.1545" y1="29.8" x2="45.9803" y2="29.8" gradientTransform="matrix(1 0 0 -1 0 184)">
		<stop  offset="0" style="stop-color:#EF3F7C"/>
		<stop  offset="0.9768" style="stop-color:#FF029A"/>
		<stop  offset="1" style="stop-color:#FF009B"/>
	</linearGradient>
	<path class="st2" d="M42.2,151.8c1.8,2.6,3.8,4.8,3.8,4.8C45.6,155.6,43.8,153.8,42.2,151.8z"/>
	
		<linearGradient id="SVGID_3_" gradientUnits="userSpaceOnUse" x1="5.8" y1="95.3014" x2="128.4" y2="95.3014" gradientTransform="matrix(1 0 0 -1 0 184)">
		<stop  offset="0" style="stop-color:#EF3F7C"/>
		<stop  offset="0.9768" style="stop-color:#FF029A"/>
		<stop  offset="1" style="stop-color:#FF009B"/>
	</linearGradient>
	<path class="st3" d="M128.4,36.9c-0.9-6.3-5.5-10.9-8.3-14.1c0-0.1,1.3-1.3,1.3-1.5c0.7-4-11.5-9.1-12.6-9.3
		c0,0-11.6-10.5-26.8-10.3c-15.2,0.2-27.6,0-37.9,8.2S28.7,24.6,21.6,47.7c-7.1,23.2-8.7,40.6-10.5,45c-1.8,4.5-4.2,15-4,22l2.3-3.9
		c0,0-2.1,11-0.6,16.9c0,0,0.1-2.2,1.6-4.3c0,0,0,17.3-4.6,23.6c0,0,12.8-14.4,17.1-14.9l1.2,1.7l-5.8,9.8l7-9.7
		c0,0,3.3,4.3,4.7,8.5l-2-7.6l6.2-5.8c0,0,1.2,1.3,1.5,1.9c0.3,0.5,2.1,12.1,3.3,16c0.1,0.3,0.2,0.6,0.3,0.8c0.5,1.1,1.7,2.6,2.9,4
		c-1.2-1.8-2.3-3.9-2.4-5.6c-0.3-4.3-0.7-11.6-0.7-11.6s4.2,9.8,4.3,10.5s4.6,14.8,18,22.4c0,0-15.2-9.9-15.3-26
		c0,0,17.1,33,33.4,34.3c0,0-8.8-7-9.7-15.2c0,0,5.5,7.7,13.4,6.8c0,0-9.4-19-12-35.4C68.4,115.7,79.8,81,80,80.1
		c0.2-0.7,20.1-31.4,29.8-48.7c0,0,4.6-3.1,7.6-6.3c3.3,4,5.8,8.6,5.8,8.6c0.6-2.9-0.2-5.5-0.2-5.5C125,29,128.4,36.9,128.4,36.9z"
		/>
	
		<linearGradient id="SVGID_4_" gradientUnits="userSpaceOnUse" x1="103.5834" y1="51.7" x2="111.0925" y2="51.7" gradientTransform="matrix(1 0 0 -1 0 184)">
		<stop  offset="0" style="stop-color:#EF3F7C"/>
		<stop  offset="0.9768" style="stop-color:#FF029A"/>
		<stop  offset="1" style="stop-color:#FF009B"/>
	</linearGradient>
	<path class="st4" d="M110.7,140.7c0.2-1.1,0.4-16.8,0.4-16.8h-7.5C103.6,123.9,108.8,136,110.7,140.7z"/>
	
		<linearGradient id="SVGID_5_" gradientUnits="userSpaceOnUse" x1="111.5617" y1="54.25" x2="113.8916" y2="54.25" gradientTransform="matrix(1 0 0 -1 0 184)">
		<stop  offset="0" style="stop-color:#EF3F7C"/>
		<stop  offset="0.9768" style="stop-color:#FF029A"/>
		<stop  offset="1" style="stop-color:#FF009B"/>
	</linearGradient>
	<path class="st5" d="M111.6,123.9c0,0-0.5,5.8,1.1,12.2c0,0-0.5-8.9,1.1-12.7L111.6,123.9z"/>
</g>
</svg>
