<svg xmlns="http://www.w3.org/2000/svg" viewBox="0 0 159 186" enable-background="new 0 0 159 186"><style type="text/css">.st0{opacity:0.7;} .st1{fill:none;stroke:#76777E;} .st2{fill:url(#Lunettes_1_);}</style><g id="dimitri" transform="translate(3524.95 2712.894)"><g id="Visage" class="st0"><path id="Forme_81" class="st1" d="M-3465.5-2598.3s-7.7 3.1-12.5-1.5c-3.4-3-6.4-6.5-8.8-10.3-3.3-4.7-8.6-10.1-7.3-15.7 1.3-5.6 2.8-5.6 5.9-6.2 3.1-.7 9.5 2.6 9.5 2.6"/><path id="Forme_82" class="st1" d="M-3469.2-2605.3s7.5 15 7.3 16.8"/><path id="Forme_83" class="st1" d="M-3474.7-2598c.9 4.6.9 9.3 0 13.9"/><path id="Forme_84" class="st1" d="M-3474.3-2587s-3.1 3.5-13.2 7.7c0 0-1.7 0-.7 2.9 1 3 16.7 39.2 36.4 45.8s20.1 3 25.7-1.8c5.6-4.8 10.1-21.1 8.4-28.2"/><path id="Forme_85" class="st1" d="M-3420.3-2546.7s2.5-13.9 2.2-15.4"/><path id="Forme_86" class="st1" d="M-3451.9-2579.3s24.8 15.3 34.5 16.8 20-3.6 20.9-4.8c2.4-3.9 3.8-8.3 4-12.8.5-6.8 2.2-15.4 2.2-15.4s.8-9.4.7-11.7c0-2.3 2-12.5 1.1-16.8-.9-4.3-3.5-16-2.6-18.3 1-2.3 4.9-9.5 3.7-11.4-1.3-1.8-9-17.9-8.8-19.8.1-2.3-.1-4.7-.4-7-.2-1.2.7-3.6 1.8-2.6 0 0-1.2-2.5-1.8-2.2s-.2-2.2 1.1-2.2c0 0-1.3-4.8-2.2-5.5.8-.1 1.5 0 2.2.4 0 0-2.6-5.4-4.8-7-2.1-1.5-5.2-2.4-9.5-5.1-4.4-2.7-19.1-12.9-39.3-6.2 0 0-19.9.6-34.5 19.4 0 0-11.4 4.1-12.9 4.8v1.8s-2.5 1-3.3 1.5c.4.9.6 1.9.7 2.9-.9.5-1.8 1.1-2.6 1.8l.4 3.7c-.8 5.2-1.3 10.5-1.5 15.7.1 5.1 5.9 20.5 5.9 20.5s3.1 9.6 2.9 11.7"/><path id="Forme_87" class="st1" d="M-3474.3-2588.8s-16.6 4.9-24.2 10.6c-7.6 5.7-20.3 7.2-26.4 12.8"/><path id="Forme_88" class="st1" d="M-3391-2588.1s21.2 1.7 25.7 7.7"/></g><linearGradient id="Lunettes_1_" gradientUnits="userSpaceOnUse" x1="-3526.098" y1="-2469.664" x2="-3525.242" y2="-2469.664" gradientTransform="matrix(113.851 0 0 -27.36 397966.594 -70205.797)"><stop offset="0" stop-color="#4663FF"/><stop offset="1" stop-color="#17A8D3"/></linearGradient><path id="Lunettes" class="st2" d="M-3482-2630.6s8.9-1.7 12.5 0c3.6 1.7 4 2.9 4 2.9l21.7-.7 4-.7s-.5 8.7 7.3 7.7l20.2-4c1.9-2.8 3-6.1 3.3-9.5.3-5.2.7-5.5.7-5.5l5.9-.7s2.3 11.4 5.5 12.1c3.2.7 13.9-1.5 15.4-3.7s1.9-7.4 1.8-8.4h1.5v-5.1s-2-3.1-8.8-2.2l-15.4 4.8-7 .7s-17.5-1.4-32 8.1c0 0-46.3.2-48.1 2.6l-2.6 2.2c.1-.2 1.3-4 10.1-.6zm17.6-2.5l22-.4h1.5v3.3l-1.8.4-17.6.7-4.1-4z"/></g></svg>